<?xml version="1.0" encoding="UTF-8"?>
<svg width="700pt" height="700pt" version="1.1" viewBox="0 0 700 700" xmlns="http://www.w3.org/2000/svg" xmlns:xlink="http://www.w3.org/1999/xlink">
 <defs>
  <symbol id="w" overflow="visible">
   <path d="m21.781-1.2969c-1.125 0.58594-2.2969 1.0234-3.5156 1.3125-1.2109 0.28906-2.4766 0.4375-3.7969 0.4375-3.9492 0-7.0781-1.0977-9.3906-3.2969-2.3047-2.207-3.4531-5.2031-3.4531-8.9844 0-3.7891 1.1484-6.7852 3.4531-8.9844 2.3125-2.207 5.4414-3.3125 9.3906-3.3125 1.3203 0 2.5859 0.14844 3.7969 0.4375 1.2188 0.29297 2.3906 0.73047 3.5156 1.3125v4.9062c-1.1367-0.76953-2.2578-1.332-3.3594-1.6875-1.0938-0.36328-2.25-0.54688-3.4688-0.54688-2.1797 0-3.8906 0.69922-5.1406 2.0938-1.25 1.3984-1.875 3.3242-1.875 5.7812 0 2.4492 0.625 4.3711 1.875 5.7656 1.25 1.3984 2.9609 2.0938 5.1406 2.0938 1.2188 0 2.375-0.17578 3.4688-0.53125 1.1016-0.36328 2.2227-0.92969 3.3594-1.7031z"/>
  </symbol>
  <symbol id="d" overflow="visible">
   <path d="m15.938-12.938c-0.5-0.22656-0.99609-0.39844-1.4844-0.51562-0.49219-0.11328-0.98438-0.17188-1.4844-0.17188-1.4609 0-2.5859 0.46875-3.375 1.4062-0.78125 0.9375-1.1719 2.2812-1.1719 4.0312v8.1875h-5.6875v-17.781h5.6875v2.9219c0.72656-1.1641 1.5664-2.0156 2.5156-2.5469 0.94531-0.53125 2.082-0.79688 3.4062-0.79688 0.1875 0 0.39062 0.011719 0.60938 0.03125 0.22656 0.011719 0.55078 0.042969 0.96875 0.09375z"/>
  </symbol>
  <symbol id="a" overflow="visible">
   <path d="m20.484-8.9375v1.625h-13.297c0.14453 1.3359 0.62891 2.3359 1.4531 3 0.82031 0.66797 1.9727 1 3.4531 1 1.1953 0 2.4219-0.17578 3.6719-0.53125 1.2578-0.35156 2.5508-0.89453 3.875-1.625v4.3906c-1.3438 0.51172-2.6875 0.89062-4.0312 1.1406-1.3438 0.25781-2.6875 0.39062-4.0312 0.39062-3.2188 0-5.7266-0.81641-7.5156-2.4531-1.7812-1.6328-2.6719-3.9258-2.6719-6.875 0-2.8945 0.875-5.1719 2.625-6.8281 1.7578-1.6641 4.1719-2.5 7.2344-2.5 2.8008 0 5.0391 0.84375 6.7188 2.5312 1.6758 1.6797 2.5156 3.9219 2.5156 6.7344zm-5.8438-1.8906c0-1.082-0.32031-1.9531-0.95312-2.6094-0.625-0.66406-1.4492-1-2.4688-1-1.0938 0-1.9844 0.3125-2.6719 0.9375-0.6875 0.61719-1.1211 1.5078-1.2969 2.6719z"/>
  </symbol>
  <symbol id="m" overflow="visible">
   <path d="m10.703-8c-1.1875 0-2.0859 0.20312-2.6875 0.60938-0.59375 0.39844-0.89062 0.98438-0.89062 1.7656 0 0.71875 0.23828 1.2891 0.71875 1.7031 0.48828 0.40625 1.1602 0.60938 2.0156 0.60938 1.0703 0 1.9727-0.38281 2.7031-1.1562 0.72656-0.76953 1.0938-1.7266 1.0938-2.875v-0.65625zm8.6875-2.1406v10.141h-5.7344v-2.6406c-0.76172 1.0859-1.6211 1.8711-2.5781 2.3594-0.94922 0.48828-2.1055 0.73438-3.4688 0.73438-1.8438 0-3.3438-0.53516-4.5-1.6094-1.1484-1.0703-1.7188-2.4609-1.7188-4.1719 0-2.0938 0.71875-3.625 2.1562-4.5938 1.4375-0.97656 3.6875-1.4688 6.75-1.4688h3.3594v-0.4375c0-0.89453-0.35547-1.5508-1.0625-1.9688-0.71094-0.42578-1.8203-0.64062-3.3281-0.64062-1.2109 0-2.3398 0.125-3.3906 0.375-1.0547 0.24219-2.0273 0.60547-2.9219 1.0938v-4.3438c1.2188-0.28906 2.4414-0.50781 3.6719-0.65625 1.2266-0.15625 2.4531-0.23438 3.6719-0.23438 3.207 0 5.5234 0.63281 6.9531 1.8906 1.4258 1.2617 2.1406 3.3203 2.1406 6.1719z"/>
  </symbol>
  <symbol id="c" overflow="visible">
   <path d="m8.9375-22.828v5.0469h5.8594v4.0625h-5.8594v7.5469c0 0.82422 0.16016 1.3828 0.48438 1.6719 0.33203 0.29297 0.98828 0.4375 1.9688 0.4375h2.9219v4.0625h-4.875c-2.25 0-3.8438-0.46875-4.7812-1.4062s-1.4062-2.5234-1.4062-4.7656v-7.5469h-2.8281v-4.0625h2.8281v-5.0469z"/>
  </symbol>
  <symbol id="l" overflow="visible">
   <path d="m14.828-15.172v-9.5312h5.7188v24.703h-5.7188v-2.5781c-0.78125 1.0547-1.6484 1.8242-2.5938 2.3125-0.9375 0.47656-2.0273 0.71875-3.2656 0.71875-2.1875 0-3.9922-0.86719-5.4062-2.6094-1.4062-1.7383-2.1094-3.9766-2.1094-6.7188 0-2.7383 0.70312-4.9766 2.1094-6.7188 1.4141-1.7383 3.2188-2.6094 5.4062-2.6094 1.2266 0 2.3164 0.24609 3.2656 0.73438 0.94531 0.49219 1.8125 1.2578 2.5938 2.2969zm-3.75 11.5c1.2188 0 2.1445-0.44141 2.7812-1.3281 0.64453-0.88281 0.96875-2.1758 0.96875-3.875 0-1.6953-0.32422-2.9883-0.96875-3.875-0.63672-0.88281-1.5625-1.3281-2.7812-1.3281-1.2109 0-2.1367 0.44531-2.7812 1.3281-0.63672 0.88672-0.95312 2.1797-0.95312 3.875 0 1.6992 0.31641 2.9922 0.95312 3.875 0.64453 0.88672 1.5703 1.3281 2.7812 1.3281z"/>
  </symbol>
  <symbol id="k" overflow="visible">
   <path d="m12.188-3.6719c1.2188 0 2.1445-0.44141 2.7812-1.3281 0.64453-0.88281 0.96875-2.1758 0.96875-3.875 0-1.6953-0.32422-2.9883-0.96875-3.875-0.63672-0.88281-1.5625-1.3281-2.7812-1.3281-1.2109 0-2.1406 0.44922-2.7969 1.3438-0.64844 0.88672-0.96875 2.1719-0.96875 3.8594s0.32031 2.9805 0.96875 3.875c0.65625 0.88672 1.5859 1.3281 2.7969 1.3281zm-3.7656-11.5c0.78125-1.0391 1.6445-1.8047 2.5938-2.2969 0.95703-0.48828 2.0547-0.73438 3.2969-0.73438 2.1875 0 3.9844 0.87109 5.3906 2.6094 1.4062 1.7422 2.1094 3.9805 2.1094 6.7188 0 2.7422-0.70312 4.9805-2.1094 6.7188-1.4062 1.7422-3.2031 2.6094-5.3906 2.6094-1.2422 0-2.3398-0.24609-3.2969-0.73438-0.94922-0.48828-1.8125-1.2539-2.5938-2.2969v2.5781h-5.6875v-24.703h5.6875z"/>
  </symbol>
  <symbol id="j" overflow="visible">
   <path d="m0.39062-17.781h5.6875l4.7812 12.062 4.0625-12.062h5.6875l-7.4844 19.469c-0.75 1.9766-1.625 3.3594-2.625 4.1406-1 0.78906-2.3203 1.1875-3.9531 1.1875h-3.2969v-3.7344h1.7812c0.96875 0 1.6719-0.15625 2.1094-0.46875 0.4375-0.30469 0.77344-0.85156 1.0156-1.6406l0.15625-0.48438z"/>
  </symbol>
  <symbol id="i" overflow="visible">
   <path d="m0.15625-23.703h6.1406l6.2969 17.5 6.2656-17.5h6.1406l-8.7812 23.703h-7.2812z"/>
  </symbol>
  <symbol id="h" overflow="visible">
   <path d="m2.7344-17.781h5.6875v17.781h-5.6875zm0-6.9219h5.6875v4.6406h-5.6875z"/>
  </symbol>
  <symbol id="g" overflow="visible">
   <path d="m17.094-17.219v4.625c-0.77344-0.53125-1.5469-0.92188-2.3281-1.1719-0.77344-0.25-1.5742-0.375-2.4062-0.375-1.5938 0-2.8359 0.46484-3.7188 1.3906-0.88672 0.91797-1.3281 2.2109-1.3281 3.875 0 1.668 0.44141 2.9648 1.3281 3.8906 0.88281 0.91797 2.125 1.375 3.7188 1.375 0.88281 0 1.7227-0.12891 2.5156-0.39062 0.80078-0.25781 1.5391-0.64844 2.2188-1.1719v4.6406c-0.88672 0.33594-1.7891 0.57812-2.7031 0.73438-0.91797 0.16406-1.8359 0.25-2.75 0.25-3.2109 0-5.7188-0.82031-7.5312-2.4688-1.8125-1.6445-2.7188-3.9297-2.7188-6.8594 0-2.9258 0.90625-5.2109 2.7188-6.8594 1.8125-1.6445 4.3203-2.4688 7.5312-2.4688 0.92578 0 1.8438 0.085937 2.75 0.25 0.90625 0.15625 1.8047 0.40234 2.7031 0.73438z"/>
  </symbol>
  <symbol id="b" overflow="visible">
   <path d="m11.188-14.141c-1.2617 0-2.2266 0.45312-2.8906 1.3594-0.65625 0.89844-0.98438 2.1992-0.98438 3.9062 0 1.7109 0.32812 3.0156 0.98438 3.9219 0.66406 0.89844 1.6289 1.3438 2.8906 1.3438 1.2383 0 2.1875-0.44531 2.8438-1.3438 0.65625-0.90625 0.98438-2.2109 0.98438-3.9219 0-1.707-0.32812-3.0078-0.98438-3.9062-0.65625-0.90625-1.6055-1.3594-2.8438-1.3594zm0-4.0625c3.0625 0 5.4531 0.82812 7.1719 2.4844 1.7188 1.6484 2.5781 3.9297 2.5781 6.8438 0 2.918-0.85938 5.2031-2.5781 6.8594-1.7188 1.6484-4.1094 2.4688-7.1719 2.4688s-5.4648-0.82031-7.2031-2.4688c-1.7305-1.6562-2.5938-3.9414-2.5938-6.8594 0-2.9141 0.86328-5.1953 2.5938-6.8438 1.7383-1.6562 4.1406-2.4844 7.2031-2.4844z"/>
  </symbol>
  <symbol id="e" overflow="visible">
   <path d="m20.609-10.828v10.828h-5.7188v-8.2812c0-1.5391-0.039063-2.6016-0.10938-3.1875-0.0625-0.58203-0.17969-1.0078-0.34375-1.2812-0.23047-0.375-0.53906-0.66016-0.92188-0.85938-0.375-0.20703-0.80859-0.3125-1.2969-0.3125-1.1797 0-2.1055 0.46094-2.7812 1.375-0.67969 0.91797-1.0156 2.1836-1.0156 3.7969v8.75h-5.6875v-17.781h5.6875v2.6094c0.85156-1.0391 1.7578-1.8047 2.7188-2.2969 0.96875-0.48828 2.0352-0.73438 3.2031-0.73438 2.0508 0 3.6094 0.63281 4.6719 1.8906 1.0625 1.25 1.5938 3.0781 1.5938 5.4844z"/>
  </symbol>
  <symbol id="f" overflow="visible">
   <path d="m16.625-17.219v4.3125c-1.2188-0.50781-2.3984-0.89062-3.5312-1.1406-1.125-0.25781-2.1953-0.39062-3.2031-0.39062-1.0859 0-1.8867 0.13672-2.4062 0.40625-0.52344 0.27344-0.78125 0.6875-0.78125 1.25 0 0.46094 0.19531 0.80859 0.59375 1.0469 0.39453 0.24219 1.1094 0.42188 2.1406 0.54688l1 0.14062c2.9062 0.36719 4.8594 0.97656 5.8594 1.8281 1.0078 0.84375 1.5156 2.1719 1.5156 3.9844 0 1.8984-0.69922 3.3203-2.0938 4.2656-1.3984 0.94922-3.4805 1.4219-6.25 1.4219-1.1797 0-2.3984-0.09375-3.6562-0.28125-1.25-0.17578-2.5391-0.45312-3.8594-0.82812v-4.3125c1.1328 0.55469 2.2969 0.96875 3.4844 1.25 1.1875 0.27344 2.3945 0.40625 3.625 0.40625 1.1133 0 1.9531-0.14844 2.5156-0.45312 0.5625-0.3125 0.84375-0.76953 0.84375-1.375 0-0.50781-0.19922-0.89062-0.59375-1.1406-0.38672-0.25-1.1523-0.44141-2.2969-0.57812l-1-0.125c-2.5312-0.32031-4.3086-0.91016-5.3281-1.7656-1.0117-0.85156-1.5156-2.1562-1.5156-3.9062 0-1.8828 0.64453-3.2812 1.9375-4.1875 1.2891-0.90625 3.2695-1.3594 5.9375-1.3594 1.0391 0 2.1406 0.078125 3.2969 0.23438s2.4102 0.40625 3.7656 0.75z"/>
  </symbol>
  <symbol id="v" overflow="visible">
   <path d="m9.0938-19.078v14.453h2.1875c2.5 0 4.4062-0.61328 5.7188-1.8438 1.3203-1.2383 1.9844-3.0391 1.9844-5.4062 0-2.3516-0.65625-4.1406-1.9688-5.3594-1.3125-1.2266-3.2266-1.8438-5.7344-1.8438zm-6.1094-4.625h6.4531c3.5938 0 6.2695 0.26172 8.0312 0.78125 1.7578 0.51172 3.2695 1.375 4.5312 2.5938 1.1133 1.0742 1.9414 2.3086 2.4844 3.7031 0.53906 1.3984 0.8125 2.9805 0.8125 4.75 0 1.793-0.27344 3.3906-0.8125 4.7969-0.54297 1.3984-1.3711 2.6328-2.4844 3.7031-1.2734 1.2188-2.7969 2.0898-4.5781 2.6094-1.7734 0.51172-4.4336 0.76562-7.9844 0.76562h-6.4531z"/>
  </symbol>
  <symbol id="u" overflow="visible">
   <path d="m14.828-3.0156c-0.78125 1.043-1.6484 1.8086-2.5938 2.2969-0.9375 0.48047-2.0273 0.71875-3.2656 0.71875-2.168 0-3.9648-0.85156-5.3906-2.5625-1.418-1.707-2.125-3.8828-2.125-6.5312 0-2.6562 0.70703-4.832 2.125-6.5312 1.4258-1.6953 3.2227-2.5469 5.3906-2.5469 1.2383 0 2.3281 0.24609 3.2656 0.73438 0.94531 0.48047 1.8125 1.2461 2.5938 2.2969v-2.6406h5.7188v15.984c0 2.8633-0.90625 5.0469-2.7188 6.5469-1.8047 1.5078-4.418 2.2656-7.8438 2.2656-1.1172 0-2.1953-0.085937-3.2344-0.25-1.0312-0.16797-2.0703-0.42969-3.1094-0.78125v-4.4219c0.98828 0.5625 1.957 0.98438 2.9062 1.2656 0.95703 0.28125 1.9219 0.42188 2.8906 0.42188 1.8516 0 3.2109-0.40625 4.0781-1.2188 0.875-0.8125 1.3125-2.0859 1.3125-3.8281zm-3.75-11.062c-1.1797 0-2.0938 0.43359-2.75 1.2969-0.65625 0.86719-0.98438 2.0938-0.98438 3.6875 0 1.625 0.31641 2.8594 0.95312 3.7031 0.63281 0.84375 1.5625 1.2656 2.7812 1.2656 1.1875 0 2.1094-0.42969 2.7656-1.2969 0.65625-0.875 0.98438-2.0977 0.98438-3.6719 0-1.5938-0.32812-2.8203-0.98438-3.6875-0.65625-0.86328-1.5781-1.2969-2.7656-1.2969z"/>
  </symbol>
  <symbol id="t" overflow="visible">
   <path d="m14.438-24.703v3.7344h-3.1562c-0.80469 0-1.3672 0.14844-1.6875 0.4375-0.3125 0.29297-0.46875 0.79688-0.46875 1.5156v1.2344h4.8594v4.0625h-4.8594v13.719h-5.6875v-13.719h-2.8125v-4.0625h2.8125v-1.2344c0-1.9375 0.53906-3.3672 1.625-4.2969 1.082-0.92578 2.7539-1.3906 5.0156-1.3906z"/>
  </symbol>
  <symbol id="s" overflow="visible">
   <path d="m19.203-14.828c0.72656-1.1016 1.5859-1.9414 2.5781-2.5156 0.98828-0.57031 2.0703-0.85938 3.25-0.85938 2.0508 0 3.6094 0.63281 4.6719 1.8906 1.0703 1.25 1.6094 3.0781 1.6094 5.4844v10.828h-5.7188v-9.2656c0.007812-0.14453 0.015625-0.28906 0.015625-0.4375 0.007813-0.14453 0.015625-0.35156 0.015625-0.625 0-1.2578-0.1875-2.1719-0.5625-2.7344-0.36719-0.57031-0.96094-0.85938-1.7812-0.85938-1.0859 0-1.9219 0.44922-2.5156 1.3438-0.58594 0.88672-0.88672 2.168-0.90625 3.8438v8.7344h-5.7188v-9.2656c0-1.9688-0.17188-3.2344-0.51562-3.7969-0.33594-0.57031-0.93359-0.85938-1.7969-0.85938-1.0938 0-1.9375 0.44922-2.5312 1.3438-0.58594 0.89844-0.875 2.1719-0.875 3.8281v8.75h-5.7188v-17.781h5.7188v2.6094c0.69531-1.0078 1.4922-1.7656 2.3906-2.2656 0.90625-0.50781 1.9062-0.76562 3-0.76562 1.2266 0 2.3125 0.29688 3.25 0.89062 0.94531 0.58594 1.6602 1.4141 2.1406 2.4844z"/>
  </symbol>
  <symbol id="r" overflow="visible">
   <path d="m20.609-10.828v10.828h-5.7188v-8.25c0-1.5625-0.039063-2.6328-0.10938-3.2188-0.0625-0.58203-0.17969-1.0078-0.34375-1.2812-0.23047-0.375-0.53906-0.66016-0.92188-0.85938-0.375-0.20703-0.80859-0.3125-1.2969-0.3125-1.1797 0-2.1055 0.46094-2.7812 1.375-0.67969 0.91797-1.0156 2.1836-1.0156 3.7969v8.75h-5.6875v-24.703h5.6875v9.5312c0.85156-1.0391 1.7578-1.8047 2.7188-2.2969 0.96875-0.48828 2.0352-0.73438 3.2031-0.73438 2.0508 0 3.6094 0.63281 4.6719 1.8906 1.0625 1.25 1.5938 3.0781 1.5938 5.4844z"/>
  </symbol>
  <symbol id="q" overflow="visible">
   <path d="m2.9844-23.703h6.8281l8.625 16.25v-16.25h5.7969v23.703h-6.8281l-8.625-16.266v16.266h-5.7969z"/>
  </symbol>
  <symbol id="p" overflow="visible">
   <path d="m2.5469-6.9219v-10.859h5.7031v1.7812c0 0.96094-0.007812 2.168-0.015625 3.625-0.011719 1.4609-0.015625 2.4297-0.015625 2.9062 0 1.4375 0.035156 2.4688 0.10938 3.0938 0.082031 0.625 0.21094 1.0859 0.39062 1.375 0.22656 0.36719 0.53125 0.65234 0.90625 0.85938 0.375 0.19922 0.80469 0.29688 1.2969 0.29688 1.1875 0 2.1172-0.45312 2.7969-1.3594 0.67578-0.91406 1.0156-2.1797 1.0156-3.7969v-8.7812h5.6875v17.781h-5.6875v-2.5781c-0.85547 1.043-1.7617 1.8086-2.7188 2.2969-0.96094 0.48828-2.0156 0.73438-3.1719 0.73438-2.0547 0-3.6172-0.625-4.6875-1.875-1.0742-1.2578-1.6094-3.0938-1.6094-5.5z"/>
  </symbol>
  <symbol id="o" overflow="visible">
   <path d="m2.9844-23.703h10.141c3.0195 0 5.3359 0.67188 6.9531 2.0156 1.6133 1.3359 2.4219 3.2422 2.4219 5.7188 0 2.4922-0.80859 4.4062-2.4219 5.75-1.6172 1.3359-3.9336 2-6.9531 2h-4.0312v8.2188h-6.1094zm6.1094 4.4219v6.625h3.3906c1.1758 0 2.0859-0.28516 2.7344-0.85938 0.64453-0.58203 0.96875-1.3984 0.96875-2.4531 0-1.0625-0.32422-1.8789-0.96875-2.4531-0.64844-0.57031-1.5586-0.85938-2.7344-0.85938z"/>
  </symbol>
  <symbol id="n" overflow="visible">
   <path d="m2.7344-17.781h5.6875v17.469c0 2.375-0.57422 4.1875-1.7188 5.4375-1.1484 1.2578-2.8047 1.8906-4.9688 1.8906h-2.8125v-3.7344h0.98438c1.082 0 1.8203-0.24609 2.2188-0.73438 0.40625-0.48047 0.60938-1.4336 0.60938-2.8594zm0-6.9219h5.6875v4.6406h-5.6875z"/>
  </symbol>
 </defs>
 <g>
  <path d="m497.94 0c-110.64 0-147.94 98.195-147.94 98.195s-37.258-98.195-147.94-98.195c-110.61 0-177.23 105.45-177.23 192.36 0 145.65 325.17 367.64 325.17 367.64s325.17-221.94 325.17-367.61c0-86.941-66.594-192.39-177.23-192.39z" fill="#010101"/>
  <g>
   <use x="24.828125" y="657.550781" xlink:href="#w"/>
   <use x="48.691406" y="657.550781" xlink:href="#d"/>
   <use x="64.726562" y="657.550781" xlink:href="#a"/>
   <use x="86.78125" y="657.550781" xlink:href="#m"/>
   <use x="108.722656" y="657.550781" xlink:href="#c"/>
   <use x="124.269531" y="657.550781" xlink:href="#a"/>
   <use x="146.324219" y="657.550781" xlink:href="#l"/>
   <use x="180.917969" y="657.550781" xlink:href="#k"/>
   <use x="204.195312" y="657.550781" xlink:href="#j"/>
   <use x="236.714844" y="657.550781" xlink:href="#i"/>
   <use x="261.878906" y="657.550781" xlink:href="#h"/>
   <use x="273.027344" y="657.550781" xlink:href="#g"/>
   <use x="292.300781" y="657.550781" xlink:href="#b"/>
   <use x="314.640625" y="657.550781" xlink:href="#e"/>
   <use x="337.789062" y="657.550781" xlink:href="#f"/>
   <use x="368.464844" y="657.550781" xlink:href="#v"/>
   <use x="395.457031" y="657.550781" xlink:href="#a"/>
   <use x="417.511719" y="657.550781" xlink:href="#f"/>
   <use x="436.867188" y="657.550781" xlink:href="#h"/>
   <use x="448.011719" y="657.550781" xlink:href="#u"/>
   <use x="471.289062" y="657.550781" xlink:href="#e"/>
   <use x="24.828125" y="690.070312" xlink:href="#t"/>
   <use x="38.972656" y="690.070312" xlink:href="#d"/>
   <use x="55.011719" y="690.070312" xlink:href="#b"/>
   <use x="77.351562" y="690.070312" xlink:href="#s"/>
   <use x="122.554688" y="690.070312" xlink:href="#c"/>
   <use x="138.097656" y="690.070312" xlink:href="#r"/>
   <use x="161.246094" y="690.070312" xlink:href="#a"/>
   <use x="194.621094" y="690.070312" xlink:href="#q"/>
   <use x="221.835938" y="690.070312" xlink:href="#b"/>
   <use x="244.175781" y="690.070312" xlink:href="#p"/>
   <use x="267.324219" y="690.070312" xlink:href="#e"/>
   <use x="301.796875" y="690.070312" xlink:href="#o"/>
   <use x="325.628906" y="690.070312" xlink:href="#d"/>
   <use x="341.664062" y="690.070312" xlink:href="#b"/>
   <use x="364.003906" y="690.070312" xlink:href="#n"/>
   <use x="375.148438" y="690.070312" xlink:href="#a"/>
   <use x="397.203125" y="690.070312" xlink:href="#g"/>
   <use x="416.480469" y="690.070312" xlink:href="#c"/>
  </g>
 </g>
</svg>
