<?xml version="1.0" standalone="no"?>
<!DOCTYPE svg PUBLIC "-//W3C//DTD SVG 20010904//EN"
 "http://www.w3.org/TR/2001/REC-SVG-20010904/DTD/svg10.dtd">
<svg version="1.0" xmlns="http://www.w3.org/2000/svg"
 width="641.000000pt" height="537.000000pt" viewBox="0 0 641.000000 537.000000"
 preserveAspectRatio="xMidYMid meet">

<g transform="translate(0.000000,537.000000) scale(0.100000,-0.100000)"
fill="#000000" stroke="none">
<path d="M1387 5314 c-329 -59 -625 -208 -856 -429 -208 -201 -339 -405 -435
-682 -71 -205 -81 -277 -81 -568 0 -293 7 -341 76 -550 56 -167 140 -334 257
-510 134 -201 226 -309 487 -571 334 -335 477 -456 1448 -1231 369 -295 727
-581 795 -635 l123 -98 367 293 c202 161 547 437 767 612 630 503 889 723
1149 975 449 435 702 793 825 1165 70 210 76 257 76 550 0 235 -2 270 -23 363
-72 322 -223 608 -435 829 -211 218 -452 363 -747 448 -167 48 -271 58 -537
53 -207 -5 -237 -8 -327 -32 -206 -55 -383 -139 -561 -265 -127 -89 -334 -304
-445 -460 -53 -74 -101 -136 -107 -138 -7 -3 -34 26 -60 63 -213 300 -374 462
-598 601 -175 109 -389 192 -565 219 -125 18 -485 18 -593 -2z m833 -499 c58
-15 122 -36 142 -46 21 -11 42 -19 48 -19 9 0 122 -54 190 -91 63 -35 201
-133 261 -186 107 -96 243 -250 302 -344 17 -26 47 -40 47 -21 0 4 18 30 40
57 22 28 59 74 82 104 157 196 363 356 593 458 130 57 138 60 270 93 116 29
126 30 355 30 155 -1 257 -5 300 -14 178 -37 283 -72 430 -145 180 -90 328
-200 447 -334 72 -81 86 -98 113 -142 13 -22 27 -42 31 -45 11 -8 114 -219
132 -270 62 -181 82 -319 74 -520 -14 -356 -153 -660 -461 -1009 -77 -88 -283
-289 -376 -368 -294 -250 -358 -303 -365 -303 -3 0 -40 -28 -83 -63 -42 -35
-93 -74 -112 -87 -19 -13 -82 -60 -140 -104 -58 -45 -112 -85 -121 -91 -18
-11 -131 -95 -311 -230 -65 -49 -127 -94 -136 -100 -9 -5 -62 -44 -117 -85
-56 -41 -112 -82 -124 -90 -28 -19 -221 -161 -335 -248 -50 -37 -114 -84 -143
-105 -63 -44 -53 -47 -202 63 -56 41 -161 119 -234 173 -72 53 -172 128 -222
165 -49 37 -110 81 -135 97 -25 17 -86 60 -135 97 -50 37 -151 113 -225 167
-74 55 -178 131 -230 170 -52 39 -118 88 -146 109 -97 71 -271 207 -389 304
-202 167 -538 489 -635 609 -163 202 -309 469 -347 634 -65 284 -54 587 30
805 189 496 548 800 1102 935 95 23 113 24 365 21 254 -2 269 -4 370 -31z"/>
</g>
</svg>
